<svg width="100" height="27" viewBox="0 0 100 27" fill="none" xmlns="http://www.w3.org/2000/svg">
<path fill-rule="evenodd" clip-rule="evenodd" d="M7.15313 22.3729L0.118896 22.3632L0.126793 13.7114L7.16102 13.7211L7.15313 22.3729Z" fill="#333333"/>
<path fill-rule="evenodd" clip-rule="evenodd" d="M24.1617 22.7262H21.0164V9.24805H32.3319V22.7262H29.1883V11.8645H24.1617V22.7262ZM33.8553 12.6826V26.0278H36.7504V21.4613C37.7205 22.7367 39.3017 22.8338 39.6844 22.8338C42.4459 22.8338 44.14 20.6993 44.14 17.592C44.14 14.3591 42.4647 12.3165 39.7403 12.3165C39.0551 12.3165 37.7205 12.451 36.6186 13.8556H36.5585L36.5797 12.6826H33.8553ZM36.6192 17.5561C36.6192 14.8216 38.0072 14.2859 38.882 14.2859C39.7403 14.2859 41.1307 14.8216 41.1307 17.5561C41.1307 19.2498 40.5421 20.8688 38.882 20.8688C37.1878 20.8688 36.6186 19.2498 36.6186 17.5561H36.6192ZM51.3213 21.2917C50.2546 22.508 49.225 22.8338 48.0836 22.8338C44.9607 22.8338 44.8434 19.9835 44.8434 18.8098V12.6826H47.7397V18.3473C47.7397 20.2906 48.2943 20.8696 49.3598 20.8696C51.1894 20.8696 51.3213 18.8837 51.3213 18.1702V12.6826H54.2139V22.4655H51.3213V21.2917ZM58.3664 18.3473H60.1383C61.5093 18.3473 61.7967 18.8434 61.7967 19.4994C61.7967 19.9252 61.6059 20.5005 60.1772 20.5005H58.367V18.3473H58.3664ZM55.4738 12.6826V22.4662H61.2232C63.3201 22.4662 64.7671 21.9656 64.7671 19.9686C64.7671 18.4235 64.0612 17.7481 62.4612 17.4037V17.3447C63.5078 17.1728 64.4233 16.3786 64.4233 15.0517C64.4233 12.6833 62.1368 12.6833 61.2439 12.6833H55.4738V12.6826ZM58.3664 14.6475H59.9282C60.7494 14.6475 61.4522 14.8007 61.4522 15.6106C61.4522 16.4959 60.3485 16.5168 59.8729 16.5168H58.3664V14.6468V14.6475ZM68.4257 15.8422C68.4257 14.3972 69.6783 14.2859 70.1946 14.2859C70.5196 14.2859 71.7205 14.3046 71.7557 15.5755V15.8422C71.6999 16.8075 70.9387 16.6095 68.8048 16.9405C67.0505 17.2281 65.2069 17.769 65.2069 20.0022C65.2069 20.8121 65.4899 22.8338 68.5764 22.8338C69.7579 22.8338 71.0517 22.4662 71.8141 21.5017H71.8718L72.1184 22.4655H75.1635V22.2959C74.6132 22.1584 74.5779 21.5017 74.5956 20.4467L74.6527 15.9767C74.6709 14.841 74.5779 12.3165 70.2128 12.3165C69.168 12.3165 65.7955 12.4323 65.6625 15.8422H68.4257ZM71.777 18.4228C71.777 20.3877 70.3677 20.8696 69.6595 20.8696C69.131 20.8696 68.1767 20.6567 68.1767 19.731C68.1767 18.6334 69.2616 18.4235 69.8721 18.3286C70.9952 18.1329 70.9011 18.1889 71.777 17.8049V18.4228ZM74.9758 14.6468V12.6818H84.271V14.6468H81.0722V22.4662H78.1746V14.6468H74.9758Z" fill="#74B027"/>
<path fill-rule="evenodd" clip-rule="evenodd" d="M0 22.5035H7.25352V13.7024H0V22.5035Z" fill="#333333"/>
<path fill-rule="evenodd" clip-rule="evenodd" d="M14.7117 4.65161V17.8518H13.2357C12.5954 11.3249 9.21496 7.22471 3.8342 6.44695V4.65161H14.7124H14.7117ZM0 0V10.9499H1.91771C6.96255 10.9499 9.52294 14.0542 9.52294 20.1769V22.5027H18.5472V0H0Z" fill="#74B027"/>
<path d="M91.6597 19.096V21.3346H84.7908C84.8652 20.4884 85.0883 19.6878 85.4602 18.9331C85.8321 18.1726 86.5667 17.1662 87.6639 15.9139C88.5472 14.9018 89.0888 14.2157 89.2887 13.8555C89.5583 13.358 89.6931 12.8662 89.6931 12.3802C89.6931 11.8427 89.5746 11.431 89.3375 11.1451C89.105 10.8535 88.7819 10.7077 88.3682 10.7077C87.9591 10.7077 87.6336 10.8592 87.3919 11.1623C87.1501 11.4653 87.0107 11.9685 86.9735 12.6718L85.0209 12.4317C85.1371 11.1051 85.5021 10.153 86.1157 9.57551C86.7294 8.99799 87.4965 8.70923 88.417 8.70923C89.4258 8.70923 90.2185 9.04373 90.795 9.71274C91.3714 10.3818 91.6597 11.2137 91.6597 12.2087C91.6597 12.7747 91.576 13.3151 91.4086 13.8297C91.2459 14.3386 90.9856 14.8733 90.6276 15.4336C90.3905 15.8053 89.9628 16.3399 89.3445 17.0375C88.7262 17.7351 88.3333 18.1983 88.1659 18.427C88.0032 18.6557 87.8707 18.8787 87.7685 19.096H91.6597Z" fill="#333333"/>
<path d="M96.834 21.3346V18.8044H92.6499V16.6945L97.0851 8.70923H98.7308V16.6859H100V18.8044H98.7308V21.3346H96.834ZM96.834 16.6859V12.3888L94.4839 16.6859H96.834Z" fill="#333333"/>
</svg>
