<svg width="220" height="87" viewBox="0 0 220 87" fill="none" xmlns="http://www.w3.org/2000/svg">
<g filter="url(#filter0_d)">
<path d="M23.8884 66.8884C20.1288 66.8884 16.8222 66.0958 13.9686 64.5104C11.1149 62.9251 8.89544 60.7056 7.31009 57.8519C5.77003 54.953 5 51.6238 5 47.8642V20.7546H14.9198V47.1168C14.9198 50.4687 15.7125 53.1412 17.2978 55.1342C18.9285 57.0819 21.1253 58.0558 23.8884 58.0558C26.6514 58.0558 28.8482 57.0819 30.4789 55.1342C32.1095 53.1412 32.9249 50.4687 32.9249 47.1168V20.7546H42.7767V47.8642C42.7767 51.6238 41.984 54.953 40.3987 57.8519C38.8586 60.7056 36.6618 62.9251 33.8081 64.5104C30.9545 66.0958 27.6479 66.8884 23.8884 66.8884Z" fill="white"/>
<path d="M62.8638 12.9691V50.2042H53.2802V12.9691H41.0173V5H75.1266V12.9691H62.8638Z" fill="white"/>
<path d="M97.7578 29.0104C97.7349 26.6976 97.1395 24.8999 95.9716 23.6175C94.8037 22.3352 93.2122 21.694 91.197 21.694C89.2047 21.694 87.6361 22.3352 86.4911 23.6175C85.3461 24.877 84.6934 26.6747 84.5331 29.0104H97.7578ZM104.662 48.3837C101.41 50.0096 97.357 50.8225 92.5023 50.8225C86.9376 50.8225 82.5867 49.2997 79.4494 46.254C76.335 43.1854 74.7778 38.7887 74.7778 33.0637C74.7778 27.3388 76.2205 22.8962 79.1059 19.736C82.0371 16.5759 85.9873 14.9958 90.9565 14.9958C95.9487 14.9958 99.8073 16.3927 102.532 19.1864C105.257 21.9802 106.62 25.8159 106.62 30.6936V35.2621H84.327C84.4186 37.9643 85.2087 40.0711 86.6972 41.5824C88.2086 43.0709 90.2924 43.8152 92.9488 43.8152C96.9105 43.8152 100.815 42.9106 104.662 41.1015V48.3837Z" fill="white"/>
<path d="M142.84 50.2042H136.245L134.424 45.4983H134.184C132.581 47.5135 130.943 48.9104 129.272 49.689C127.6 50.4447 125.413 50.8225 122.711 50.8225C119.368 50.8225 116.746 49.8722 114.845 47.9715C112.944 46.0479 111.994 43.3114 111.994 39.7619C111.994 36.2124 113.253 33.5561 115.772 31.7928C118.314 30.0295 122.207 29.0562 127.451 28.873L133.462 28.7013V27.1899C133.462 23.6862 131.665 21.9344 128.07 21.9344C125.344 21.9344 122.104 22.7588 118.349 24.4076L115.223 18.0529C119.184 15.969 123.547 14.9271 128.31 14.9271C133.096 14.9271 136.714 15.9576 139.164 18.0185C141.615 20.0566 142.84 23.1137 142.84 27.1899V50.2042ZM133.462 37.0483V34.1973L129.821 34.3003C127.05 34.3919 125.001 34.8957 123.673 35.8117C122.345 36.7048 121.68 38.0788 121.68 39.9337C121.68 42.59 123.203 43.9182 126.249 43.9182C128.447 43.9182 130.199 43.2999 131.505 42.0633C132.81 40.8038 133.462 39.1322 133.462 37.0483Z" fill="white"/>
<path d="M183.463 32.8576V50.2042H174.017V30.0066C174.017 27.4876 173.593 25.6213 172.746 24.4076C171.898 23.171 170.593 22.5527 168.83 22.5527C166.425 22.5527 164.673 23.4343 163.574 25.1976C162.475 26.938 161.925 29.8577 161.925 33.9568V50.2042H152.514V15.6484H159.727L160.998 20.0795H161.513C162.429 18.4765 163.757 17.2285 165.498 16.3354C167.261 15.4423 169.276 14.9958 171.543 14.9958C176.742 14.9958 180.245 16.6903 182.054 20.0795H182.913C183.806 18.4536 185.157 17.2056 186.966 16.3354C188.776 15.4423 190.825 14.9958 193.115 14.9958C197.1 14.9958 200.077 16.0148 202.046 18.0529C204.015 20.091 205 23.2969 205 27.6708V50.2042H195.554V30.0066C195.554 27.4876 195.13 25.6213 194.283 24.4076C193.436 23.171 192.13 22.5527 190.367 22.5527C188.031 22.5527 186.291 23.3885 185.146 25.0602C184.024 26.709 183.463 29.3081 183.463 32.8576Z" fill="white"/>
<path d="M58.8663 61.116C59.7343 61.116 60.4856 61.312 61.1203 61.704C61.7549 62.096 62.2403 62.67 62.5763 63.426C62.9216 64.182 63.0943 65.092 63.0943 66.156C63.0943 67.2107 62.9216 68.116 62.5763 68.872C62.2309 69.628 61.7409 70.2067 61.1063 70.608C60.4716 71.0094 59.7249 71.21 58.8663 71.21C57.9983 71.21 57.2469 71.014 56.6123 70.622C55.9776 70.23 55.4876 69.656 55.1423 68.9C54.7969 68.144 54.6243 67.234 54.6243 66.17C54.6243 65.1247 54.7969 64.224 55.1423 63.468C55.4876 62.7027 55.9776 62.1194 56.6123 61.718C57.2563 61.3167 58.0076 61.116 58.8663 61.116ZM58.8663 62.53C58.1196 62.53 57.5503 62.824 57.1583 63.412C56.7663 63.9907 56.5703 64.91 56.5703 66.17C56.5703 68.5874 57.3356 69.796 58.8663 69.796C59.6129 69.796 60.1776 69.5067 60.5603 68.928C60.9523 68.3494 61.1483 67.4254 61.1483 66.156C61.1483 64.896 60.9523 63.9767 60.5603 63.398C60.1776 62.8194 59.6129 62.53 58.8663 62.53Z" fill="white"/>
<path d="M69.372 61.116C69.96 61.116 70.4733 61.2 70.912 61.368C71.3506 61.536 71.78 61.7927 72.2 62.138L71.262 63.23C70.6926 62.7727 70.0953 62.544 69.47 62.544C68.7513 62.544 68.1726 62.8334 67.734 63.412C67.3046 63.9907 67.09 64.9007 67.09 66.142C67.09 67.3554 67.3046 68.256 67.734 68.844C68.1633 69.432 68.742 69.726 69.47 69.726C69.8526 69.726 70.1933 69.6607 70.492 69.53C70.7906 69.39 71.108 69.194 71.444 68.942L72.312 70.034C71.9853 70.37 71.57 70.65 71.066 70.874C70.5713 71.098 70.016 71.21 69.4 71.21C68.56 71.21 67.818 71.014 67.174 70.622C66.53 70.23 66.0306 69.656 65.676 68.9C65.3213 68.1347 65.144 67.2154 65.144 66.142C65.144 65.0874 65.326 64.182 65.69 63.426C66.0633 62.67 66.5673 62.096 67.202 61.704C67.846 61.312 68.5693 61.116 69.372 61.116Z" fill="white"/>
<path d="M77.9095 61.116C78.7775 61.116 79.5289 61.312 80.1635 61.704C80.7982 62.096 81.2835 62.67 81.6195 63.426C81.9649 64.182 82.1375 65.092 82.1375 66.156C82.1375 67.2107 81.9649 68.116 81.6195 68.872C81.2742 69.628 80.7842 70.2067 80.1495 70.608C79.5149 71.0094 78.7682 71.21 77.9095 71.21C77.0415 71.21 76.2902 71.014 75.6556 70.622C75.0209 70.23 74.5309 69.656 74.1855 68.9C73.8402 68.144 73.6675 67.234 73.6675 66.17C73.6675 65.1247 73.8402 64.224 74.1855 63.468C74.5309 62.7027 75.0209 62.1194 75.6556 61.718C76.2995 61.3167 77.0509 61.116 77.9095 61.116ZM77.9095 62.53C77.1629 62.53 76.5935 62.824 76.2015 63.412C75.8095 63.9907 75.6136 64.91 75.6136 66.17C75.6136 68.5874 76.3789 69.796 77.9095 69.796C78.6562 69.796 79.2209 69.5067 79.6035 68.928C79.9956 68.3494 80.1915 67.4254 80.1915 66.156C80.1915 64.896 79.9956 63.9767 79.6035 63.398C79.2209 62.8194 78.6562 62.53 77.9095 62.53Z" fill="white"/>
<path d="M87.7152 64.854C88.9192 64.854 89.8479 65.106 90.5012 65.61C91.1639 66.114 91.4952 66.8607 91.4952 67.85C91.4952 68.914 91.1546 69.7074 90.4732 70.23C89.7919 70.7434 88.8726 71 87.7152 71H84.7192V61.326H90.4032L90.2072 62.768H86.5672V64.854H87.7152ZM87.6592 69.614C88.2659 69.614 88.7326 69.4834 89.0592 69.222C89.3859 68.9514 89.5492 68.5034 89.5492 67.878C89.5492 67.2994 89.3859 66.8747 89.0592 66.604C88.7419 66.3334 88.2612 66.198 87.6172 66.198H86.5672V69.614H87.6592Z" fill="white"/>
<path d="M100.93 71H99.0957V66.884C99.0957 65.6894 99.1844 64.4714 99.3617 63.23L96.0717 71H93.7897V61.326H95.6237V65.484C95.6237 66.2587 95.6004 66.9027 95.5537 67.416C95.507 67.9294 95.4417 68.4894 95.3577 69.096L98.7037 61.326H100.93V71Z" fill="white"/>
<path d="M107.732 61.116C108.32 61.116 108.833 61.2 109.272 61.368C109.711 61.536 110.14 61.7927 110.56 62.138L109.622 63.23C109.053 62.7727 108.455 62.544 107.83 62.544C107.111 62.544 106.533 62.8334 106.094 63.412C105.665 63.9907 105.45 64.9007 105.45 66.142C105.45 67.3554 105.665 68.256 106.094 68.844C106.523 69.432 107.102 69.726 107.83 69.726C108.213 69.726 108.553 69.6607 108.852 69.53C109.151 69.39 109.468 69.194 109.804 68.942L110.672 70.034C110.345 70.37 109.93 70.65 109.426 70.874C108.931 71.098 108.376 71.21 107.76 71.21C106.92 71.21 106.178 71.014 105.534 70.622C104.89 70.23 104.391 69.656 104.036 68.9C103.681 68.1347 103.504 67.2154 103.504 66.142C103.504 65.0874 103.686 64.182 104.05 63.426C104.423 62.67 104.927 62.096 105.562 61.704C106.206 61.312 106.929 61.116 107.732 61.116Z" fill="white"/>
<path d="M118.912 61.326L118.716 62.796H116.196V71H114.334V62.796H111.73V61.326H118.912Z" fill="white"/>
<path d="M128.1 71H126.266V66.884C126.266 65.6894 126.355 64.4714 126.532 63.23L123.242 71H120.96V61.326H122.794V65.484C122.794 66.2587 122.771 66.9027 122.724 67.416C122.677 67.9294 122.612 68.4894 122.528 69.096L125.874 61.326H128.1V71Z" fill="white"/>
<path d="M138.346 71H136.512V66.884C136.512 65.6894 136.601 64.4714 136.778 63.23L133.488 71H131.206V61.326H133.04V65.484C133.04 66.2587 133.017 66.9027 132.97 67.416C132.924 67.9294 132.858 68.4894 132.774 69.096L136.12 61.326H138.346V71ZM134.776 60.444C134.123 60.444 133.596 60.2714 133.194 59.926C132.793 59.5807 132.564 59.114 132.508 58.526L133.558 58.316C133.652 58.6147 133.796 58.8294 133.992 58.96C134.188 59.0907 134.45 59.156 134.776 59.156C135.103 59.156 135.369 59.0907 135.574 58.96C135.78 58.82 135.924 58.6054 136.008 58.316L137.072 58.526C137.016 59.114 136.783 59.5807 136.372 59.926C135.962 60.2714 135.43 60.444 134.776 60.444Z" fill="white"/>
<path d="M152.891 61.326L150.357 65.778L153.143 71H151.071L148.803 66.646H147.641V71H145.793V61.326H147.641V65.232H148.831L151.015 61.326H152.891Z" fill="white"/>
<path d="M160.274 71L159.672 68.76H156.466L155.864 71H153.946L156.956 61.326H159.238L162.234 71H160.274ZM156.83 67.36H159.294L158.062 62.74L156.83 67.36Z" fill="white"/>
<path d="M167.148 64.854C168.352 64.854 169.281 65.106 169.934 65.61C170.597 66.114 170.928 66.8607 170.928 67.85C170.928 68.914 170.588 69.7074 169.906 70.23C169.225 70.7434 168.306 71 167.148 71H164.152V61.326H169.836L169.64 62.768H166V64.854H167.148ZM167.092 69.614C167.699 69.614 168.166 69.4834 168.492 69.222C168.819 68.9514 168.982 68.5034 168.982 67.878C168.982 67.2994 168.819 66.8747 168.492 66.604C168.175 66.3334 167.694 66.198 167.05 66.198H166V69.614H167.092Z" fill="white"/>
<path d="M175.071 61.326V71H173.223V61.326H175.071Z" fill="white"/>
<path d="M183.47 71V66.674H180.026V71H178.178V61.326H180.026V65.204H183.47V61.326H185.332V71H183.47Z" fill="white"/>
<path d="M194.038 61.326L193.842 62.698H190.272V65.4H193.38V66.772H190.272V69.614H194.094V71H188.424V61.326H194.038Z" fill="white"/>
<path d="M202.904 61.326L202.708 62.796H200.188V71H198.326V62.796H195.722V61.326H202.904Z" fill="white"/>
</g>
<defs>
<filter id="filter0_d" x="0" y="0" width="220" height="86.21" filterUnits="userSpaceOnUse" color-interpolation-filters="sRGB">
<feFlood flood-opacity="0" result="BackgroundImageFix"/>
<feColorMatrix in="SourceAlpha" type="matrix" values="0 0 0 0 0 0 0 0 0 0 0 0 0 0 0 0 0 0 127 0"/>
<feOffset dx="5" dy="5"/>
<feGaussianBlur stdDeviation="5"/>
<feColorMatrix type="matrix" values="0 0 0 0 0 0 0 0 0 0 0 0 0 0 0 0 0 0 0.1 0"/>
<feBlend mode="normal" in2="BackgroundImageFix" result="effect1_dropShadow"/>
<feBlend mode="normal" in="SourceGraphic" in2="effect1_dropShadow" result="shape"/>
</filter>
</defs>
</svg>
