<svg width="18" height="22" viewBox="0 0 18 22" fill="none" xmlns="http://www.w3.org/2000/svg">
<path d="M11 1.19824H3C2.46957 1.19824 1.96086 1.40896 1.58579 1.78403C1.21071 2.1591 1 2.66781 1 3.19824V19.1982C1 19.7287 1.21071 20.2374 1.58579 20.6125C1.96086 20.9875 2.46957 21.1982 3 21.1982H15C15.5304 21.1982 16.0391 20.9875 16.4142 20.6125C16.7893 20.2374 17 19.7287 17 19.1982V7.19824M11 1.19824L17 7.19824M11 1.19824V7.19824H17M13 12.1982H5M13 16.1982H5M7 8.19824H5" stroke="#999999" stroke-linecap="round" stroke-linejoin="round"/>
</svg>
