<svg width="18" height="18" viewBox="0 0 18 18" fill="none" xmlns="http://www.w3.org/2000/svg">
<path d="M14 0H4C1.8 0 0 1.8 0 4V14C0 16.2 1.8 18 4 18H14C16.2 18 18 16.2 18 14V4C18 1.8 16.2 0 14 0ZM9 13.8C6.3 13.8 4.10001 11.6 4.10001 8.9C4.10001 6.2 6.3 4 9 4C11.7 4 13.9 6.2 13.9 8.9C13.9 11.7 11.7 13.8 9 13.8ZM15 4.1C14.4 4.1 13.9 3.6 13.9 3C13.9 2.4 14.4 1.9 15 1.9C15.6 1.9 16.1 2.4 16.1 3C16.1 3.6 15.6 4.1 15 4.1Z" fill="url(#paint0_radial)"/>
<path d="M10.5 6.40193C9.06512 5.5735 7.23034 6.06513 6.40192 7.50001C5.57349 8.93489 6.06512 10.7697 7.5 11.5981C8.93488 12.4265 10.7697 11.9349 11.5981 10.5C12.4265 9.06513 11.9349 7.23036 10.5 6.40193Z" fill="url(#paint1_radial)"/>
<defs>
<radialGradient id="paint0_radial" cx="0" cy="0" r="1" gradientUnits="userSpaceOnUse" gradientTransform="translate(4 18.5) rotate(-61.607) scale(21.0297)">
<stop stop-color="#FEDA75"/>
<stop offset="0.231005" stop-color="#FA7E1E"/>
<stop offset="0.48425" stop-color="#D62976"/>
<stop offset="0.734036" stop-color="#962FBF"/>
<stop offset="1" stop-color="#4F5BD5"/>
</radialGradient>
<radialGradient id="paint1_radial" cx="0" cy="0" r="1" gradientUnits="userSpaceOnUse" gradientTransform="translate(4 18.5) rotate(-61.607) scale(21.0297)">
<stop stop-color="#FEDA75"/>
<stop offset="0.231005" stop-color="#FA7E1E"/>
<stop offset="0.48425" stop-color="#D62976"/>
<stop offset="0.734036" stop-color="#962FBF"/>
<stop offset="1" stop-color="#4F5BD5"/>
</radialGradient>
</defs>
</svg>
