<svg width="21" height="20" viewBox="0 0 21 20" fill="none" xmlns="http://www.w3.org/2000/svg">
<mask id="path-1-inside-1" fill="white">
<path d="M10.5 20C16.0228 20 20.5 15.5228 20.5 10C20.5 4.47715 16.0228 0 10.5 0C4.97715 0 0.5 4.47715 0.5 10C0.5 15.5228 4.97715 20 10.5 20Z"/>
<path d="M7.59 7C7.8251 6.33167 8.28915 5.76811 8.89995 5.40913C9.51076 5.05016 10.2289 4.91894 10.9272 5.03871C11.6255 5.15849 12.2588 5.52152 12.7151 6.06353C13.1713 6.60553 13.4211 7.29152 13.42 8C13.42 10 10.42 11 10.42 11"/>
<path d="M11.5 15C11.5 15.5523 11.0523 16 10.5 16C9.94772 16 9.5 15.5523 9.5 15C9.5 14.4477 9.94772 14 10.5 14C11.0523 14 11.5 14.4477 11.5 15Z"/>
</mask>
<path d="M6.64667 6.66816C6.46339 7.18915 6.73717 7.76006 7.25816 7.94333C7.77915 8.12661 8.35006 7.85283 8.53333 7.33184L6.64667 6.66816ZM13.42 8L12.42 7.99851V8H13.42ZM10.1038 10.0513C9.57983 10.226 9.29667 10.7923 9.47132 11.3162C9.64596 11.8402 10.2123 12.1233 10.7362 11.9487L10.1038 10.0513ZM19.5 10C19.5 14.9706 15.4706 19 10.5 19V21C16.5751 21 21.5 16.0751 21.5 10H19.5ZM10.5 19C5.52944 19 1.5 14.9706 1.5 10H-0.5C-0.5 16.0751 4.42487 21 10.5 21V19ZM1.5 10C1.5 5.02944 5.52944 1 10.5 1V-1C4.42487 -1 -0.5 3.92487 -0.5 10H1.5ZM10.5 1C15.4706 1 19.5 5.02944 19.5 10H21.5C21.5 3.92487 16.5751 -1 10.5 -1V1ZM8.53333 7.33184C8.69007 6.88629 8.99944 6.51058 9.40664 6.27127L8.39327 4.547C7.57887 5.02563 6.96014 5.77705 6.64667 6.66816L8.53333 7.33184ZM9.40664 6.27127C9.81384 6.03195 10.2926 5.94447 10.7581 6.02432L11.0962 4.05311C10.1652 3.89341 9.20767 4.06837 8.39327 4.547L9.40664 6.27127ZM10.7581 6.02432C11.2236 6.10417 11.6459 6.34619 11.9501 6.70753L13.4801 5.41953C12.8718 4.69686 12.0273 4.2128 11.0962 4.05311L10.7581 6.02432ZM11.9501 6.70753C12.2542 7.06886 12.4207 7.52619 12.42 7.99851L14.42 8.00149C14.4214 7.05685 14.0884 6.1422 13.4801 5.41953L11.9501 6.70753ZM12.42 8C12.42 8.46913 12.0549 8.95822 11.3653 9.41795C11.0509 9.62753 10.7294 9.78898 10.4826 9.89869C10.3606 9.95291 10.2603 9.99295 10.1929 10.0186C10.1593 10.0314 10.1341 10.0406 10.1187 10.0461C10.111 10.0488 10.1058 10.0506 10.1032 10.0515C10.102 10.0519 10.1014 10.0521 10.1014 10.0521C10.1015 10.0521 10.1017 10.052 10.1021 10.0519C10.1023 10.0518 10.1025 10.0517 10.1028 10.0516C10.1029 10.0516 10.1032 10.0515 10.1032 10.0515C10.1035 10.0514 10.1038 10.0513 10.42 11C10.7362 11.9487 10.7365 11.9486 10.7368 11.9485C10.7369 11.9484 10.7372 11.9483 10.7375 11.9483C10.7379 11.9481 10.7385 11.9479 10.739 11.9478C10.7401 11.9474 10.7414 11.9469 10.7429 11.9464C10.7459 11.9454 10.7496 11.9442 10.754 11.9427C10.7628 11.9396 10.7744 11.9356 10.7887 11.9305C10.8173 11.9203 10.8565 11.9061 10.9049 11.8876C11.0015 11.8508 11.1356 11.7971 11.2949 11.7263C11.6106 11.586 12.0391 11.3725 12.4747 11.0821C13.2851 10.5418 14.42 9.53087 14.42 8H12.42ZM10.5 15V17C11.6046 17 12.5 16.1046 12.5 15H10.5ZM10.5 15H8.5C8.5 16.1046 9.39543 17 10.5 17V15ZM10.5 15V13C9.39543 13 8.5 13.8954 8.5 15H10.5ZM10.5 15H12.5C12.5 13.8954 11.6046 13 10.5 13V15Z" fill="#828282" mask="url(#path-1-inside-1)"/>
</svg>
