<svg width="130" height="50" fill="none" xmlns="http://www.w3.org/2000/svg"><path fill="#fff" d="M0 0h130v50H0z"/><path d="M14.805 41.68c-2.35 0-4.416-.495-6.2-1.486a10.51 10.51 0 01-4.161-4.162C3.48 34.221 3 32.14 3 29.79V12.847h6.2v16.476c0 2.095.495 3.765 1.486 5.01 1.02 1.218 2.392 1.827 4.12 1.827 1.726 0 3.1-.609 4.118-1.826 1.02-1.246 1.53-2.916 1.53-5.01V12.846h6.156V29.79c0 2.35-.495 4.43-1.486 6.242a10.23 10.23 0 01-4.119 4.162c-1.783.99-3.85 1.486-6.2 1.486zm24.36-33.7v23.273h-5.99V7.98h-7.664V3h21.318v4.98h-7.664zm21.809 10.027c-.015-1.446-.387-2.57-1.117-3.371-.73-.801-1.724-1.202-2.984-1.202-1.245 0-2.225.4-2.941 1.202-.716.787-1.124 1.91-1.224 3.37h8.266zm4.315 12.108c-2.033 1.016-4.566 1.524-7.6 1.524-3.478 0-6.197-.952-8.158-2.855-1.947-1.918-2.92-4.666-2.92-8.244 0-3.578.902-6.355 2.705-8.33 1.832-1.975 4.301-2.963 7.407-2.963 3.12 0 5.532.873 7.235 2.62 1.703 1.746 2.555 4.143 2.555 7.191v2.856H52.579c.058 1.689.551 3.005 1.482 3.95.944.93 2.247 1.395 3.907 1.395 2.476 0 4.916-.565 7.32-1.695v4.55zm23.861 1.138h-4.122L83.89 28.31h-.15c-1.002 1.26-2.025 2.133-3.07 2.62-1.045.472-2.412.708-4.1.708-2.09 0-3.73-.594-4.917-1.782-1.188-1.202-1.782-2.912-1.782-5.13 0-2.22.787-3.88 2.362-4.982 1.588-1.102 4.021-1.71 7.299-1.824l3.757-.108v-.944c0-2.19-1.124-3.285-3.37-3.285-1.704 0-3.729.515-6.076 1.546l-1.954-3.972c2.476-1.302 5.203-1.954 8.18-1.954 2.991 0 5.252.644 6.784 1.933 1.531 1.273 2.297 3.184 2.297 5.732v14.384zm-5.861-8.223v-1.782l-2.276.065c-1.732.057-3.012.372-3.843.944-.83.558-1.245 1.417-1.245 2.577 0 1.66.952 2.49 2.856 2.49 1.374 0 2.468-.387 3.284-1.16.816-.787 1.224-1.831 1.224-3.134zm31.25-2.619v10.842h-5.904V18.629c0-1.574-.264-2.74-.794-3.5-.53-.772-1.345-1.159-2.447-1.159-1.503 0-2.598.551-3.285 1.653-.687 1.088-1.031 2.913-1.031 5.475v10.155h-5.882V9.655h4.508l.795 2.77h.322c.572-1.002 1.402-1.782 2.49-2.34 1.102-.559 2.362-.838 3.779-.838 3.249 0 5.438 1.06 6.569 3.178h.537c.558-1.017 1.402-1.796 2.533-2.34 1.131-.559 2.412-.838 3.843-.838 2.49 0 4.351.637 5.582 1.911 1.231 1.274 1.846 3.278 1.846 6.011v14.084h-5.904V18.629c0-1.574-.265-2.74-.794-3.5-.53-.772-1.346-1.159-2.448-1.159-1.459 0-2.547.523-3.263 1.568-.701 1.03-1.052 2.655-1.052 4.873zM39.567 38.094l-.136.91h-2.288v5.282h-1.188v-5.282h-2.35v-.91h5.962zm4.294-.147c.817 0 1.47.141 1.961.423.49.278.736.678.736 1.198 0 .326-.099.604-.297.835-.198.23-.54.403-1.027.517 1.106.11 1.658.62 1.658 1.533 0 .435-.128.787-.383 1.057-.252.27-.59.468-1.015.594-.42.121-.884.182-1.391.182h-2.537V38.17c.363-.062.734-.115 1.114-.158.38-.044.773-.065 1.181-.065zm.007.852c-.227 0-.425.006-.594.017-.165.012-.338.03-.52.053v1.733h1.262c.408 0 .732-.066.971-.2.243-.133.365-.371.365-.716 0-.321-.124-.548-.371-.681-.243-.138-.614-.206-1.114-.206zm-1.114 4.617h1.324c1.043 0 1.565-.328 1.565-.986 0-.279-.077-.49-.23-.635a1.168 1.168 0 00-.58-.306 3.26 3.26 0 00-.743-.082h-1.336v2.01zm8.643-5.469c.932 0 1.639.294 2.121.881.487.588.73 1.373.73 2.356 0 .638-.111 1.202-.334 1.692-.218.49-.54.871-.965 1.146-.424.274-.946.41-1.565.41-.932 0-1.643-.293-2.134-.88-.486-.588-.73-1.373-.73-2.356 0-.642.11-1.206.328-1.692.223-.49.547-.872.971-1.146.43-.274.955-.411 1.578-.411zm0 .899c-.536 0-.94.192-1.213.576-.272.38-.408.97-.408 1.774 0 .795.134 1.384.402 1.768.268.38.67.57 1.206.57.536 0 .938-.19 1.206-.57.268-.384.403-.977.403-1.78 0-.799-.135-1.388-.403-1.768-.268-.38-.666-.57-1.193-.57zm4.275 5.44l1.565-2.614c-.767-.341-1.15-.901-1.15-1.68 0-.615.233-1.085.699-1.41.47-.326 1.125-.488 1.967-.488h2.424v6.192H59.99v-2.362h-1.62l-1.374 2.362h-1.324zm3.037-3.202h1.28v-2.138h-1.261c-.458 0-.804.084-1.04.252-.234.165-.352.43-.352.793 0 .384.107.662.322.835.218.172.569.258 1.051.258zm12.454 3.202v-6.192h1.188v2.479h1.243l1.807-2.48h1.286l-2.128 2.868 2.444 3.325H75.61l-2.041-2.843H72.35v2.843h-1.188zm9.905-6.339c.932 0 1.64.294 2.122.881.486.588.73 1.373.73 2.356 0 .638-.112 1.202-.335 1.692a2.58 2.58 0 01-.964 1.146c-.425.274-.947.41-1.565.41-.932 0-1.644-.293-2.134-.88-.487-.588-.73-1.373-.73-2.356 0-.642.109-1.206.328-1.692.222-.49.546-.872.97-1.146.43-.274.955-.411 1.578-.411zm0 .899c-.536 0-.94.192-1.212.576-.273.38-.409.97-.409 1.774 0 .795.134 1.384.402 1.768.268.38.67.57 1.207.57.536 0 .938-.19 1.206-.57.268-.384.402-.977.402-1.78 0-.799-.134-1.388-.402-1.768-.268-.38-.666-.57-1.194-.57zm10.17-.752l.464 6.192H90.59l-.229-2.879a21.581 21.581 0 01-.043-2.22h-.05l-1.225 4.065h-1.1l-1.361-4.065h-.05c.02.348.027.718.019 1.11a22.85 22.85 0 01-.037 1.104l-.167 2.885h-1.102l.452-6.192h1.49l1.324 4.16 1.213-4.16h1.515zm6.93 4.77c0 .247.04.427.123.54.083.11.213.193.39.247l-.278.776a1.946 1.946 0 01-.78-.253 1.167 1.167 0 01-.482-.61 2.16 2.16 0 01-.891.651 3.093 3.093 0 01-1.17.218c-.655 0-1.172-.176-1.552-.529-.38-.352-.569-.817-.569-1.392 0-.643.264-1.136.792-1.48.532-.35 1.295-.524 2.289-.524h.946v-.47c0-.426-.134-.73-.402-.91-.264-.18-.633-.27-1.107-.27-.219 0-.477.025-.773.076-.293.05-.607.131-.94.24l-.304-.822c.4-.145.786-.248 1.157-.311a6.259 6.259 0 011.04-.094c.836 0 1.463.182 1.88.546.42.365.63.86.63 1.487v2.884zm-2.753.723c.3 0 .592-.075.872-.223.285-.15.518-.357.699-.623v-1.498h-.866c-.689 0-1.177.111-1.466.335-.289.219-.433.52-.433.904 0 .737.398 1.105 1.194 1.105zm9.236.699v-2.714h-2.684v2.714h-1.188v-6.192h1.188v2.579h2.684v-2.58h1.188v6.193h-1.188zm2.661-.899h.452c.186-.157.342-.35.47-.581.128-.235.233-.564.316-.987.082-.427.15-1.003.204-1.728l.154-1.997h4.299v5.293h.501v2.679h-.959l-.191-1.78h-4.095l-.192 1.78h-.959v-2.679zm4.714-4.412h-2.054l-.068 1.046a21.648 21.648 0 01-.142 1.398 5.095 5.095 0 01-.21.934 2.001 2.001 0 01-.316.605 2.14 2.14 0 01-.464.43h3.254v-4.413zm8.395 3.889c0 .247.041.427.124.54a.74.74 0 00.389.247l-.278.776a1.94 1.94 0 01-.779-.253 1.165 1.165 0 01-.483-.61 2.16 2.16 0 01-.891.651 3.088 3.088 0 01-1.169.218c-.655 0-1.173-.176-1.552-.529-.38-.352-.569-.817-.569-1.392 0-.643.264-1.136.791-1.48.532-.35 1.295-.524 2.289-.524h.946v-.47c0-.426-.134-.73-.402-.91-.264-.18-.633-.27-1.107-.27-.218 0-.476.025-.773.076a6.72 6.72 0 00-.94.24l-.303-.822a6.65 6.65 0 011.156-.311 6.274 6.274 0 011.04-.094c.837 0 1.463.182 1.88.546.421.365.631.86.631 1.487v2.884zm-2.753.723c.301 0 .592-.075.872-.223.285-.15.518-.357.699-.623v-1.498h-.866c-.688 0-1.177.111-1.465.335-.289.219-.433.52-.433.904 0 .737.397 1.105 1.193 1.105zm8.525-7.397l-.13 5.376h-1.039l-.142-5.376h1.311zm-.643 6.58a.88.88 0 01.631.241c.169.16.254.354.254.582a.799.799 0 01-.254.593.868.868 0 01-.631.247.853.853 0 01-.618-.247.808.808 0 01-.248-.593c0-.228.083-.421.248-.582a.864.864 0 01.618-.24z" fill="#D12421"/></svg>