<svg width="18" height="18" viewBox="0 0 18 18" fill="none" xmlns="http://www.w3.org/2000/svg">
<path fill-rule="evenodd" clip-rule="evenodd" d="M14.25 18H3.75C1.67925 18 0 16.3207 0 14.25V3.75C0 1.67925 1.67925 0 3.75 0H14.25C16.3215 0 18 1.67925 18 3.75V14.25C18 16.3207 16.3215 18 14.25 18ZM12.192 14.139C12.3533 14.2537 12.5602 14.2822 12.7455 14.2118C12.93 14.142 13.0665 13.9838 13.1077 13.7917C13.542 11.7502 14.5965 6.58125 14.9918 4.72425C15.021 4.584 14.9715 4.4385 14.862 4.34475C14.7517 4.25175 14.5988 4.22475 14.463 4.275C12.3668 5.0505 5.91 7.473 3.27075 8.45025C3.1035 8.51175 2.99475 8.673 3 8.85C3.006 9.02625 3.12525 9.18 3.29625 9.23175C4.47975 9.585 6.03375 10.0778 6.03375 10.0778C6.03375 10.0778 6.759 12.2708 7.13775 13.3853C7.185 13.5255 7.29525 13.6358 7.43925 13.6733C7.584 13.7108 7.737 13.6718 7.845 13.5697C8.45325 12.996 9.393 12.1088 9.393 12.1088C9.393 12.1088 11.1788 13.4182 12.192 14.139ZM6.687 9.801L7.52625 12.57L7.713 10.8165C7.713 10.8165 10.956 7.8915 12.8055 6.2235C12.8595 6.17475 12.867 6.093 12.822 6.03525C12.777 5.9775 12.6952 5.964 12.6337 6.003C10.491 7.37175 6.687 9.801 6.687 9.801Z" fill="#0088CC"/>
</svg>
