<svg width="140" height="35" viewBox="0 0 140 35" fill="none" xmlns="http://www.w3.org/2000/svg">
<g clip-path="url(#clip0)">
<rect width="140" height="34.4526" fill="white"/>
<path d="M29.4442 30.9444C27.5644 30.9444 25.9111 30.548 24.4843 29.7553C23.0575 28.9627 21.9477 27.8529 21.155 26.4261C20.385 24.9766 20 23.312 20 21.4322V7.87744H24.9599V21.0585C24.9599 22.7345 25.3562 24.0707 26.1489 25.0672C26.9642 26.0411 28.0627 26.528 29.4442 26.528C30.8257 26.528 31.9241 26.0411 32.7395 25.0672C33.5548 24.0707 33.9624 22.7345 33.9624 21.0585V7.87744H38.8884V21.4322C38.8884 23.312 38.492 24.9766 37.6994 26.4261C36.9293 27.8529 35.8309 28.9627 34.4041 29.7553C32.9773 30.548 31.324 30.9444 29.4442 30.9444Z" fill="#D12421"/>
<path d="M48.932 3.98457V22.6021H44.1402V3.98457H38.0088V0H55.0634V3.98457H48.932Z" fill="#D12421"/>
<path d="M66.379 12.0052C66.3676 10.8488 66.0699 9.94997 65.4859 9.30878C64.902 8.66758 64.1062 8.34698 63.0986 8.34698C62.1025 8.34698 61.3182 8.66758 60.7457 9.30878C60.1732 9.93852 59.8468 10.8373 59.7667 12.0052H66.379ZM69.8312 21.6919C68.2053 22.5048 66.1786 22.9113 63.7513 22.9113C60.9689 22.9113 58.7935 22.1498 57.2248 20.627C55.6676 19.0927 54.889 16.8943 54.889 14.0319C54.889 11.1694 55.6104 8.9481 57.0531 7.36802C58.5187 5.78793 60.4938 4.99788 62.9784 4.99788C65.4745 4.99788 67.4038 5.69633 68.7663 7.09322C70.1289 8.49011 70.8101 10.408 70.8101 12.8468V15.1311H59.6636C59.7094 16.4821 60.1045 17.5355 60.8487 18.2912C61.6044 19.0355 62.6463 19.4076 63.9745 19.4076C65.9554 19.4076 67.9076 18.9553 69.8312 18.0508V21.6919Z" fill="#D12421"/>
<path d="M88.9201 22.6021H85.6225L84.7122 20.2492H84.592C83.7905 21.2568 82.9719 21.9552 82.136 22.3445C81.3002 22.7223 80.2067 22.9113 78.8556 22.9113C77.1839 22.9113 75.8729 22.4361 74.9226 21.4858C73.9722 20.524 73.4971 19.1557 73.4971 17.381C73.4971 15.6062 74.1268 14.278 75.3863 13.3964C76.6572 12.5148 78.6037 12.0281 81.2257 11.9365L84.2313 11.8507V11.095C84.2313 9.34313 83.3325 8.46721 81.5349 8.46721C80.1724 8.46721 78.5522 8.8794 76.6744 9.7038L75.1115 6.52645C77.0923 5.48451 79.2735 4.96353 81.6551 4.96353C84.0481 4.96353 85.8572 5.47878 87.0824 6.50927C88.3075 7.52831 88.9201 9.05688 88.9201 11.095V22.6021ZM84.2313 16.0241V14.5986L82.4108 14.6502C81.0254 14.696 80.0006 14.9479 79.3365 15.4059C78.6724 15.8524 78.3404 16.5394 78.3404 17.4668C78.3404 18.795 79.1018 19.4591 80.6246 19.4591C81.7238 19.4591 82.5997 19.15 83.2524 18.5317C83.905 17.9019 84.2313 17.0661 84.2313 16.0241Z" fill="#D12421"/>
<path d="M109.232 13.9288V22.6021H104.508V12.5033C104.508 11.2438 104.297 10.3106 103.873 9.7038C103.449 9.0855 102.797 8.77635 101.915 8.77635C100.713 8.77635 99.8369 9.21718 99.2873 10.0988C98.7377 10.969 98.4629 12.4289 98.4629 14.4784V22.6021H93.757V5.32421H97.3637L97.9992 7.53976H98.2568C98.7148 6.73827 99.3789 6.11425 100.249 5.6677C101.131 5.22116 102.138 4.99788 103.272 4.99788C105.871 4.99788 107.623 5.84518 108.527 7.53976H108.957C109.403 6.72682 110.079 6.1028 110.983 5.6677C111.888 5.22116 112.913 4.99788 114.058 4.99788C116.05 4.99788 117.538 5.50741 118.523 6.52645C119.508 7.54549 120 9.14848 120 11.3354V22.6021H115.277V12.5033C115.277 11.2438 115.065 10.3106 114.642 9.7038C114.218 9.0855 113.565 8.77635 112.684 8.77635C111.516 8.77635 110.646 9.19428 110.073 10.0301C109.512 10.8545 109.232 12.1541 109.232 13.9288Z" fill="#D12421"/>
<path d="M49.2539 28.075L49.1451 28.8035H47.3141V33.0286H46.364V28.8035H44.4836V28.075H49.2539Z" fill="#D12421"/>
<path d="M52.6892 27.9575C53.3424 27.9575 53.8653 28.0703 54.2579 28.2959C54.6504 28.5183 54.8467 28.8379 54.8467 29.2547C54.8467 29.5147 54.7676 29.7372 54.6092 29.922C54.4509 30.1069 54.177 30.2448 53.7878 30.3356C54.6719 30.4234 55.1139 30.8322 55.1139 31.5623C55.1139 31.9101 55.0117 32.1921 54.8071 32.4083C54.6059 32.6244 54.3354 32.7827 53.9956 32.8829C53.6591 32.9801 53.288 33.0286 52.8822 33.0286H50.8533V28.1361C51.1437 28.086 51.4406 28.0437 51.7441 28.0092C52.0476 27.9747 52.3626 27.9575 52.6892 27.9575ZM52.6942 28.639C52.5127 28.639 52.3544 28.6437 52.2191 28.6531C52.0872 28.6625 51.9486 28.6766 51.8034 28.6954V30.0818H52.8129C53.1395 30.0818 53.3985 30.0286 53.5898 29.922C53.7845 29.8155 53.8818 29.6244 53.8818 29.3487C53.8818 29.0917 53.7828 28.91 53.5849 28.8035C53.3902 28.6938 53.0933 28.639 52.6942 28.639ZM51.8034 32.3331H52.8624C53.697 32.3331 54.1144 32.0699 54.1144 31.5435C54.1144 31.321 54.0533 31.1518 53.9313 31.0359C53.8125 30.9168 53.6575 30.8354 53.4661 30.7915C53.2781 30.7476 53.0801 30.7257 52.8723 30.7257H51.8034V32.3331Z" fill="#D12421"/>
<path d="M58.7175 27.9575C59.463 27.9575 60.0288 28.1925 60.4148 28.6625C60.8041 29.1325 60.9987 29.7607 60.9987 30.5471C60.9987 31.0578 60.9096 31.509 60.7315 31.9007C60.5566 32.2923 60.2993 32.5978 59.9595 32.8171C59.6197 33.0365 59.2024 33.1461 58.7076 33.1461C57.962 33.1461 57.393 32.9111 57.0004 32.4412C56.6111 31.9712 56.4165 31.343 56.4165 30.5565C56.4165 30.0427 56.5039 29.5915 56.6787 29.203C56.8569 28.8113 57.1158 28.5058 57.4556 28.2865C57.7987 28.0672 58.2193 27.9575 58.7175 27.9575ZM58.7175 28.6766C58.2886 28.6766 57.9653 28.8301 57.7476 29.1372C57.5299 29.4411 57.421 29.9142 57.421 30.5565C57.421 31.1926 57.5282 31.6641 57.7426 31.9712C57.9571 32.2751 58.2787 32.4271 58.7076 32.4271C59.1364 32.4271 59.4581 32.2751 59.6725 31.9712C59.887 31.6641 59.9942 31.1894 59.9942 30.5471C59.9942 29.9079 59.887 29.4364 59.6725 29.1325C59.4581 28.8285 59.1397 28.6766 58.7175 28.6766Z" fill="#D12421"/>
<path d="M62.1379 33.0286L63.3899 30.9372C62.7763 30.6646 62.4695 30.2166 62.4695 29.593C62.4695 29.1011 62.6559 28.7251 63.0286 28.4651C63.4047 28.205 63.9293 28.075 64.6022 28.075H66.542V33.0286H65.5919V31.1393H64.2954L63.1969 33.0286H62.1379ZM64.5676 30.4672H65.5919V28.7565H64.5824C64.2163 28.7565 63.9391 28.8238 63.7511 28.9586C63.5631 29.0902 63.469 29.3017 63.469 29.593C63.469 29.9001 63.5548 30.1226 63.7264 30.2604C63.9012 30.3983 64.1816 30.4672 64.5676 30.4672Z" fill="#D12421"/>
<path d="M74.5309 33.0286V28.075H75.481V30.0583H76.4757L77.9206 28.075H78.9499L77.2476 30.3685L79.2023 33.0286H78.0889L76.4559 30.7539H75.481V33.0286H74.5309Z" fill="#D12421"/>
<path d="M82.4545 27.9575C83.2 27.9575 83.7658 28.1925 84.1518 28.6625C84.541 29.1325 84.7357 29.7607 84.7357 30.5471C84.7357 31.0578 84.6466 31.509 84.4685 31.9007C84.2936 32.2923 84.0363 32.5978 83.6965 32.8171C83.3567 33.0365 82.9394 33.1461 82.4446 33.1461C81.699 33.1461 81.1299 32.9111 80.7374 32.4412C80.3481 31.9712 80.1534 31.343 80.1534 30.5565C80.1534 30.0427 80.2409 29.5915 80.4157 29.203C80.5938 28.8113 80.8528 28.5058 81.1926 28.2865C81.5357 28.0672 81.9563 27.9575 82.4545 27.9575ZM82.4545 28.6766C82.0256 28.6766 81.7023 28.8301 81.4846 29.1372C81.2668 29.4411 81.158 29.9142 81.158 30.5565C81.158 31.1926 81.2652 31.6641 81.4796 31.9712C81.694 32.2751 82.0157 32.4271 82.4446 32.4271C82.8734 32.4271 83.1951 32.2751 83.4095 31.9712C83.6239 31.6641 83.7311 31.1894 83.7311 30.5471C83.7311 29.9079 83.6239 29.4364 83.4095 29.1325C83.1951 28.8285 82.8767 28.6766 82.4545 28.6766Z" fill="#D12421"/>
<path d="M90.5908 28.075L90.9619 33.0286H90.0712L89.8881 30.7257C89.8683 30.45 89.8551 30.168 89.8485 29.8797C89.8419 29.5915 89.8435 29.2813 89.8534 28.9492H89.8138L88.8341 32.2015H87.9532L86.8646 28.9492H86.825C86.8415 29.228 86.8464 29.5241 86.8398 29.8374C86.8365 30.1476 86.8266 30.4422 86.8102 30.721L86.6765 33.0286H85.7957L86.157 28.075H87.3495L88.4085 31.4025L89.3784 28.075H90.5908Z" fill="#D12421"/>
<path d="M96.1341 31.8913C96.1341 32.0887 96.1671 32.2328 96.233 32.3237C96.299 32.4114 96.4029 32.4772 96.5448 32.521L96.3221 33.1414C96.0846 33.1132 95.8768 33.0459 95.6986 32.9393C95.5238 32.8328 95.3951 32.6699 95.3126 32.4505C95.1246 32.6824 94.8871 32.8563 94.6001 32.9722C94.313 33.0882 94.0013 33.1461 93.6648 33.1461C93.1403 33.1461 92.7263 33.0051 92.4227 32.7231C92.1192 32.4412 91.9675 32.0699 91.9675 31.6093C91.9675 31.0954 92.1786 30.7006 92.6009 30.4249C93.0265 30.1461 93.6368 30.0066 94.4318 30.0066H95.1889V29.6306C95.1889 29.2891 95.0817 29.0463 94.8673 28.9022C94.6561 28.758 94.3609 28.686 93.9815 28.686C93.8067 28.686 93.6005 28.7063 93.3629 28.7471C93.1287 28.7878 92.878 28.852 92.6108 28.9398L92.3683 28.2818C92.6883 28.1659 92.9968 28.0828 93.2937 28.0327C93.5906 27.9826 93.8677 27.9575 94.125 27.9575C94.7947 27.9575 95.2961 28.1032 95.6293 28.3946C95.9658 28.686 96.1341 29.0823 96.1341 29.5836V31.8913ZM93.932 32.4693C94.1728 32.4693 94.4054 32.4098 94.6297 32.2908C94.8574 32.1717 95.0438 32.0056 95.1889 31.7926V30.5941H94.4961C93.9452 30.5941 93.5543 30.6834 93.3234 30.862C93.0924 31.0375 92.977 31.2787 92.977 31.5858C92.977 32.1748 93.2953 32.4693 93.932 32.4693Z" fill="#D12421"/>
<path d="M101.321 33.0286V30.8573H99.1735V33.0286H98.2234V28.075H99.1735V30.1382H101.321V28.075H102.271V33.0286H101.321Z" fill="#D12421"/>
<path d="M103.45 32.3096H103.811C103.96 32.1842 104.085 32.0291 104.187 31.8443C104.29 31.6563 104.374 31.3931 104.44 31.0547C104.506 30.7132 104.56 30.2526 104.603 29.6729L104.727 28.075H108.166V32.3096H108.567V34.4527H107.8L107.646 33.0286H104.37L104.217 34.4527H103.45V32.3096ZM107.221 28.78H105.578L105.523 29.6165C105.49 30.0615 105.452 30.4343 105.41 30.7351C105.367 31.0359 105.311 31.285 105.241 31.4824C105.175 31.6766 105.091 31.838 104.989 31.9665C104.887 32.0949 104.763 32.2093 104.618 32.3096H107.221V28.78Z" fill="#D12421"/>
<path d="M113.937 31.8913C113.937 32.0887 113.97 32.2328 114.036 32.3237C114.102 32.4114 114.206 32.4772 114.348 32.521L114.125 33.1414C113.887 33.1132 113.679 33.0459 113.501 32.9393C113.326 32.8328 113.198 32.6699 113.115 32.4505C112.927 32.6824 112.69 32.8563 112.403 32.9722C112.116 33.0882 111.804 33.1461 111.468 33.1461C110.943 33.1461 110.529 33.0051 110.225 32.7231C109.922 32.4412 109.77 32.0699 109.77 31.6093C109.77 31.0954 109.981 30.7006 110.404 30.4249C110.829 30.1461 111.439 30.0066 112.235 30.0066H112.992V29.6306C112.992 29.2891 112.884 29.0463 112.67 28.9022C112.459 28.758 112.164 28.686 111.784 28.686C111.609 28.686 111.403 28.7063 111.166 28.7471C110.931 28.7878 110.681 28.852 110.414 28.9398L110.171 28.2818C110.491 28.1659 110.799 28.0828 111.096 28.0327C111.393 27.9826 111.67 27.9575 111.928 27.9575C112.597 27.9575 113.099 28.1032 113.432 28.3946C113.769 28.686 113.937 29.0823 113.937 29.5836V31.8913ZM111.735 32.4693C111.976 32.4693 112.208 32.4098 112.432 32.2908C112.66 32.1717 112.846 32.0056 112.992 31.7926V30.5941H112.299C111.748 30.5941 111.357 30.6834 111.126 30.862C110.895 31.0375 110.78 31.2787 110.78 31.5858C110.78 32.1748 111.098 32.4693 111.735 32.4693Z" fill="#D12421"/>
<path d="M118.555 26.5522L118.451 30.8526H117.62L117.506 26.5522H118.555ZM118.04 31.8161C118.241 31.8161 118.41 31.8803 118.545 32.0088C118.68 32.1372 118.748 32.2923 118.748 32.474C118.748 32.6589 118.68 32.8171 118.545 32.9487C118.41 33.0803 118.241 33.1461 118.04 33.1461C117.845 33.1461 117.681 33.0803 117.545 32.9487C117.413 32.8171 117.347 32.6589 117.347 32.474C117.347 32.2923 117.413 32.1372 117.545 32.0088C117.681 31.8803 117.845 31.8161 118.04 31.8161Z" fill="#D12421"/>
</g>
<defs>
<clipPath id="clip0">
<rect width="140" height="34.4526" fill="white"/>
</clipPath>
</defs>
</svg>
