<svg width="28" height="28" viewBox="0 0 28 28" fill="none" xmlns="http://www.w3.org/2000/svg">
<path d="M8.31248 1.11994C8.06748 1.15494 7.87498 1.34744 7.83998 1.59244L7.27998 5.51244C7.27123 5.589 7.27561 5.66556 7.29748 5.73994C4.89342 7.69119 3.35999 10.6662 3.35999 13.9999C3.35999 17.3249 4.88686 20.2912 7.27998 22.2424C7.26249 22.3234 7.26249 22.4065 7.27998 22.4874L7.83998 26.4074C7.88811 26.7159 8.17905 26.9281 8.48748 26.8799C8.79592 26.8318 9.00811 26.5409 8.95998 26.2324L8.50498 23.0999C10.1106 24.0712 11.9897 24.6399 14 24.6399C16.0103 24.6399 17.8894 24.0712 19.495 23.0999L19.04 26.2324C18.9919 26.5409 19.204 26.8318 19.5125 26.8799C19.8209 26.9281 20.1119 26.7159 20.16 26.4074L20.72 22.4874C20.7375 22.4065 20.7375 22.3234 20.72 22.2424C22.6997 20.6281 24.08 18.3115 24.5 15.6799H25.2C25.5084 15.6799 25.76 15.4284 25.76 15.1199V12.8799C25.76 12.5715 25.5084 12.3199 25.2 12.3199H24.5C24.0778 9.67963 22.6931 7.35431 20.7025 5.73994C20.7244 5.66556 20.7287 5.589 20.72 5.51244L20.16 1.59244C20.1381 1.44369 20.0572 1.30806 19.9369 1.22056C19.8144 1.13088 19.6612 1.09588 19.5125 1.11994C19.3637 1.14181 19.2281 1.22275 19.1406 1.34306C19.0509 1.46556 19.0159 1.61869 19.04 1.76744L19.495 4.89994C17.8894 3.92869 16.0103 3.35994 14 3.35994C11.9897 3.35994 10.1106 3.92869 8.50498 4.89994L8.95998 1.76744C8.99061 1.58806 8.93373 1.40431 8.80467 1.27525C8.67561 1.14619 8.49186 1.08931 8.31248 1.11994ZM14 4.47994C19.2653 4.47994 23.52 8.73463 23.52 13.9999C23.52 19.2653 19.2653 23.5199 14 23.5199C8.73467 23.5199 4.47999 19.2653 4.47999 13.9999C4.47999 8.73463 8.73467 4.47994 14 4.47994ZM14 5.59994C9.36686 5.59994 5.59999 9.36681 5.59999 13.9999C5.59999 18.6331 9.36686 22.3999 14 22.3999C18.6331 22.3999 22.4 18.6331 22.4 13.9999C22.4 9.36681 18.6331 5.59994 14 5.59994ZM13.44 6.73744C13.4487 7.03931 13.6959 7.27994 14 7.27994C14.304 7.27994 14.5512 7.03931 14.56 6.73744C18.1431 7.0065 20.9934 9.85681 21.2625 13.4399C20.9606 13.4487 20.72 13.6959 20.72 13.9999C20.72 14.304 20.9606 14.5512 21.2625 14.5599C20.9934 18.1431 18.1431 20.9934 14.56 21.2624C14.5512 20.9606 14.304 20.7199 14 20.7199C13.6959 20.7199 13.4487 20.9606 13.44 21.2624C9.85686 20.9934 7.00655 18.1431 6.73748 14.5599C7.03936 14.5512 7.27998 14.304 7.27998 13.9999C7.27998 13.6959 7.03936 13.4487 6.73748 13.4399C7.00655 9.85681 9.85686 7.0065 13.44 6.73744ZM17.57 9.79994C17.4453 9.81306 17.3272 9.86994 17.2375 9.95744L14.28 12.9149C14.1903 12.8909 14.0962 12.8799 14 12.8799C13.3809 12.8799 12.88 13.3809 12.88 13.9999C12.88 14.619 13.3809 15.1199 14 15.1199C14.0962 15.1199 14.1903 15.109 14.28 15.0849L15.8375 16.6424C16.0606 16.8656 16.4194 16.8656 16.6425 16.6424C16.8656 16.4193 16.8656 16.0606 16.6425 15.8374L15.085 14.2799C15.109 14.1903 15.12 14.0962 15.12 13.9999C15.12 13.9037 15.109 13.8096 15.085 13.7199L18.0425 10.7624C18.224 10.594 18.2722 10.3271 18.1628 10.1062C18.0556 9.88306 17.8128 9.76056 17.57 9.79994Z" fill="#C4C4C4"/>
</svg>
